<svg width="33" height="34" viewBox="0 0 33 34" fill="none" xmlns="http://www.w3.org/2000/svg">
<g clip-path="url(#clip0_1_693)">
<path d="M30.8708 23.3521V15.9004H27.0391C26.9092 15.5358 26.7565 15.1723 26.5835 14.812L29.2964 12.0985L25.2699 8.07199L23.9515 8.11936V14.3037L22.723 15.5321C23.4975 16.7079 23.9515 18.113 23.9515 19.6262C23.9515 21.9166 22.9162 23.9636 21.2902 25.3305V25.4811H21.0996C19.8323 26.478 18.2377 27.0779 16.4999 27.0779C14.7621 27.0779 13.1674 26.478 11.9001 25.4811H11.7096V25.3305C10.0835 23.9636 9.04826 21.9166 9.04826 19.6262C9.04826 18.162 9.47673 16.801 10.2059 15.6492L8.17855 13.8752C7.71655 13.4712 7.45149 12.8868 7.45149 12.2731V8.71389L7.07518 8.7272L3.70386 12.0985L6.41678 14.812C6.24379 15.1723 6.09103 15.5358 5.96116 15.9004H2.12891V23.3521H5.96063C6.0905 23.7156 6.24273 24.0791 6.41624 24.44L3.70333 27.154L8.97162 32.4223L11.6856 29.7093C12.0465 29.8829 12.41 30.0351 12.7735 30.165V33.9972H20.2251V30.1655C20.5887 30.0356 20.9522 29.8834 21.3131 29.7099L24.0271 32.4228L29.2954 27.1545L26.5824 24.4405C26.756 24.0797 26.9082 23.7161 27.038 23.3526H30.8708V23.3521Z" fill="#FFC94F"/>
<path d="M31.9355 5.25526C32.5226 5.25526 33 4.77782 33 4.19074V2.05958L32.7647 1.90097C31.886 1.30963 30.8625 0.997192 29.8065 0.997192C27.8882 0.997192 26.153 2.00848 25.2019 3.65848H24.4839C24.4839 2.48432 23.529 1.52945 22.3548 1.52945C21.7161 1.52945 21.1487 1.81793 20.7581 2.26503C20.3674 1.81793 19.8 1.52945 19.1613 1.52945C18.5226 1.52945 17.9552 1.81793 17.5645 2.26503C17.1738 1.81793 16.6065 1.52945 15.9677 1.52945C15.329 1.52945 14.7616 1.81793 14.371 2.26503C13.9803 1.81793 13.4129 1.52945 12.7742 1.52945C11.6 1.52945 10.6452 2.48432 10.6452 3.65848H7.79811C6.84697 2.00848 5.11181 0.997192 3.19355 0.997192C2.13755 0.997192 1.11402 1.30963 0.235258 1.90097L0 2.05958V4.19074C0 4.77782 0.477435 5.25526 1.06452 5.25526H3.72581V7.38429H1.06452C0.477435 7.38429 0 7.86172 0 8.44881V10.58L0.235258 10.7386C1.11402 11.3299 2.13755 11.6424 3.19355 11.6424C4.62266 11.6424 5.94213 11.0723 6.91936 10.1041V12.2731C6.91936 13.0401 7.25095 13.7703 7.82845 14.2765L9.5205 15.7572C8.86529 16.9362 8.51613 18.2668 8.51613 19.6262C8.51613 24.0285 12.0977 27.6101 16.5 27.6101C20.9023 27.6101 24.4839 24.0285 24.4839 19.6262C24.4839 18.2008 24.1102 16.8244 23.3991 15.6087L24.4839 14.524V10.0456V8.98106H25.2019C26.153 10.6311 27.8882 11.6424 29.8065 11.6424C30.8625 11.6424 31.886 11.3299 32.7647 10.7386L33 10.58V8.44881C33 7.86172 32.5226 7.38429 31.9355 7.38429H29.2742V5.25526H31.9355ZM22.3548 2.59397C22.9419 2.59397 23.4194 3.0714 23.4194 3.65848V4.19074V10.0456C23.4194 10.6327 22.9419 11.1101 22.3548 11.1101C21.7678 11.1101 21.2903 10.6327 21.2903 10.0456V3.65848C21.2903 3.0714 21.7678 2.59397 22.3548 2.59397ZM19.1613 2.59397C19.7484 2.59397 20.2258 3.0714 20.2258 3.65848V10.0456C20.2258 10.6327 19.7484 11.1101 19.1613 11.1101C18.5742 11.1101 18.0968 10.6327 18.0968 10.0456V3.65848C18.0968 3.0714 18.5742 2.59397 19.1613 2.59397ZM15.9677 2.59397C16.5548 2.59397 17.0323 3.0714 17.0323 3.65848V10.0456C17.0323 10.6327 16.5548 11.1101 15.9677 11.1101C15.3807 11.1101 14.9032 10.6327 14.9032 10.0456V3.65848C14.9032 3.0714 15.3807 2.59397 15.9677 2.59397ZM11.7097 3.65848C11.7097 3.0714 12.1871 2.59397 12.7742 2.59397C13.3613 2.59397 13.8387 3.0714 13.8387 3.65848V10.0456C13.8387 10.5097 13.538 10.9116 13.1132 11.0542L11.7097 9.8066V7.65042V3.65848ZM3.19355 10.5778C2.442 10.5778 1.71174 10.3798 1.06452 10.0025V8.44881H4.79032V4.19074H1.06452V2.63708C1.71174 2.25971 2.442 2.06171 3.19355 2.06171C4.81694 2.06171 6.27692 2.96814 7.00345 4.4276L7.15036 4.723H10.6452V5.66084C10.2641 5.40535 9.80686 5.25526 9.31452 5.25526C7.99398 5.25526 6.91936 6.32989 6.91936 7.65042V8.35513C6.16994 9.72729 4.76105 10.5778 3.19355 10.5778ZM9.58065 19.6262C9.58065 18.5245 9.84198 17.444 10.3391 16.4731L11.1774 17.2066V24.0413C10.181 22.8421 9.58065 21.3034 9.58065 19.6262ZM23.4194 19.6262C23.4194 21.3034 22.819 22.8421 21.8226 24.0413V17.1853L22.6146 16.3933C23.1399 17.3849 23.4194 18.4861 23.4194 19.6262ZM20.7581 16.7446V21.7553H19.6936V22.8198H20.7581V25.0691C19.5823 25.9904 18.1064 26.5456 16.5 26.5456C14.8936 26.5456 13.4177 25.9904 12.2419 25.0691V22.8198H18.629V21.7553H12.2419V16.7233L8.52944 13.4744C8.18294 13.1715 7.98387 12.7335 7.98387 12.2731V7.65042C7.98387 6.91643 8.58107 6.31977 9.31452 6.31977C10.048 6.31977 10.6452 6.91643 10.6452 7.65042V10.0456V10.2846L15.6138 14.7012L16.3212 13.906L13.9579 11.8052C14.1118 11.7014 14.2549 11.5843 14.3763 11.4454C14.767 11.8888 15.3317 12.1746 15.9677 12.1746C16.6065 12.1746 17.1738 11.8861 17.5645 11.439C17.9552 11.8861 18.5226 12.1746 19.1613 12.1746C19.8 12.1746 20.3674 11.8861 20.7581 11.439C21.1487 11.8861 21.7161 12.1746 22.3548 12.1746C22.7445 12.1746 23.1048 12.0618 23.4194 11.8787V14.0833L20.7581 16.7446ZM31.9355 8.44881V10.0025C31.2883 10.3798 30.558 10.5778 29.8065 10.5778C28.1831 10.5778 26.7231 9.6714 25.9965 8.21195L25.8496 7.91655H24.4839V4.723H25.8496L25.9965 4.4276C26.7231 2.96814 28.1831 2.06171 29.8065 2.06171C30.558 2.06171 31.2883 2.25971 31.9355 2.63708V4.19074H28.2097V8.44881H31.9355Z" fill="#535353"/>
</g>
<defs>
<clipPath id="clip0_1_693">
<rect width="33" height="33" fill="white" transform="translate(0 0.997192)"/>
</clipPath>
</defs>
</svg>
