<svg width="42" height="43" viewBox="0 0 42 43" fill="none" xmlns="http://www.w3.org/2000/svg">
<path d="M12.4688 14.7784H8.53125V11.4972H12.4688V14.7784Z" fill="#FFC94F"/>
<path d="M20.3438 14.7784H16.4062V11.4972H20.3438V14.7784Z" fill="#FFC94F"/>
<path d="M24.9375 21.3409H20.3438V18.0597H24.9375V21.3409Z" fill="#FFC94F"/>
<path d="M16.4062 21.3409H12.4688V18.0597H16.4062V21.3409Z" fill="#FFC94F"/>
<path d="M8.53125 21.3409H4.59375V18.0597H8.53125V21.3409Z" fill="#FFC94F"/>
<path d="M32.8125 39.7159C30.28 39.7159 28.2188 37.6547 28.2188 35.1222C28.2188 32.5897 30.28 30.5284 32.8125 30.5284C35.345 30.5284 37.4062 32.5897 37.4062 35.1222C37.4062 37.6547 35.345 39.7159 32.8125 39.7159ZM32.8125 33.8097C32.0887 33.8097 31.5 34.3983 31.5 35.1222C31.5 35.846 32.0887 36.4347 32.8125 36.4347C33.5363 36.4347 34.125 35.846 34.125 35.1222C34.125 34.3983 33.5363 33.8097 32.8125 33.8097Z" fill="#FFC94F"/>
<path d="M11.8125 39.7159C9.28003 39.7159 7.21875 37.6547 7.21875 35.1222C7.21875 32.5897 9.28003 30.5284 11.8125 30.5284C14.345 30.5284 16.4062 32.5897 16.4062 35.1222C16.4062 37.6547 14.345 39.7159 11.8125 39.7159ZM11.8125 33.8097C11.0887 33.8097 10.5 34.3983 10.5 35.1222C10.5 35.846 11.0887 36.4347 11.8125 36.4347C12.5363 36.4347 13.125 35.846 13.125 35.1222C13.125 34.3983 12.5363 33.8097 11.8125 33.8097Z" fill="#FFC94F"/>
<path d="M16.4062 8.21594H12.4688V4.93469H16.4062V8.21594Z" fill="#FFC94F"/>
<path d="M39.5299 24.6222L38.6544 24.1845L37.7626 18.8334C37.4981 17.244 36.1364 16.0909 34.526 16.0909H27.5625C26.4948 16.0909 25.5537 16.6113 24.9546 17.4034H22.9688V10.8409H19.0312V4.27844H9.84375V10.8409H5.90625V17.4034H1.96875V23.9659C1.24491 23.9659 0.65625 24.5546 0.65625 25.2784V26.5909C0.65625 27.3148 1.24491 27.9034 1.96875 27.9034V33.8097C1.96875 34.8951 2.85206 35.7784 3.9375 35.7784H7.27125C7.24041 35.5632 7.21875 35.3453 7.21875 35.1222C7.21875 34.8991 7.24041 34.6812 7.27125 34.4659H3.9375C3.57525 34.4659 3.28125 34.1719 3.28125 33.8097V33.1534H6.41878L7.40316 29.2159H3.28125V27.9034H24.2812V34.4659H16.3538C16.3846 34.6812 16.4062 34.8991 16.4062 35.1222C16.4062 35.3453 16.3846 35.5632 16.3538 35.7784H28.2713C28.2404 35.5632 28.2188 35.3453 28.2188 35.1222C28.2188 34.8991 28.2404 34.6812 28.2713 34.4659H28.2188V26.5909H33.4688H34.125H34.7812V30.978C35.2728 31.2123 35.7171 31.5286 36.0938 31.9138V23.3097L35.446 19.7883C35.3305 19.1674 34.7878 18.7159 34.1558 18.7159H28.2188C27.4949 18.7159 26.9062 19.3046 26.9062 20.0284V34.4659H25.5938V19.3722C25.5938 18.2868 26.4771 17.4034 27.5625 17.4034H34.526C35.4926 17.4034 36.309 18.0958 36.4678 19.0487L37.4699 25.0599L38.9425 25.7962C39.6139 26.1322 40.0312 26.8068 40.0312 27.5569V27.9034H37.4062V30.934L40.0312 32.2465V33.8097C40.0312 34.1719 39.7373 34.4659 39.375 34.4659H37.3537C37.3846 34.6812 37.4062 34.8991 37.4062 35.1222C37.4062 35.3453 37.3846 35.5632 37.3537 35.7784H39.375C40.4604 35.7784 41.3438 34.8951 41.3438 33.8097V27.5569C41.3438 26.3061 40.6488 25.1826 39.5299 24.6222ZM5.72184 30.5284L5.39372 31.8409H3.28125V30.5284H5.72184ZM34.125 25.2784H33.4688C32.7449 25.2784 32.1562 24.6898 32.1562 23.9659H34.7812V25.2784H34.125ZM34.1552 20.0284L34.6467 22.6534H32.1562C31.4324 22.6534 30.8438 23.2421 30.8438 23.9659C30.8438 24.4463 30.9829 24.8906 31.2086 25.2784H28.2188V20.0284H34.1552ZM24.2812 19.3722V23.9659H19.0312V18.7159H24.3475C24.3042 18.9279 24.2812 19.1478 24.2812 19.3722ZM17.7188 18.7159V23.9659H11.1562V18.7159H17.7188ZM21.6562 17.4034H19.0312H17.7188H15.0938V12.1534H21.6562V17.4034ZM11.1562 5.59094H17.7188V10.8409H15.0938H13.7812H11.1562V5.59094ZM7.21875 12.1534H13.7812V17.4034H11.1562H9.84375H7.21875V12.1534ZM3.28125 18.7159H9.84375V23.9659H3.28125V18.7159ZM1.96875 26.5909V25.2784H24.2812V26.5909H1.96875ZM38.7188 30.1229V29.2159H40.0312V30.7791L38.7188 30.1229Z" fill="#535353"/>
<path d="M32.8125 33.1534C31.7271 33.1534 30.8438 34.0368 30.8438 35.1222C30.8438 36.2076 31.7271 37.0909 32.8125 37.0909C33.8979 37.0909 34.7812 36.2076 34.7812 35.1222C34.7812 34.0368 33.8979 33.1534 32.8125 33.1534ZM32.8125 35.7784C32.4503 35.7784 32.1562 35.4844 32.1562 35.1222C32.1562 34.7599 32.4503 34.4659 32.8125 34.4659C33.1748 34.4659 33.4688 34.7599 33.4688 35.1222C33.4688 35.4844 33.1748 35.7784 32.8125 35.7784Z" fill="#535353"/>
<path d="M11.8125 33.1534C10.7271 33.1534 9.84375 34.0368 9.84375 35.1222C9.84375 36.2076 10.7271 37.0909 11.8125 37.0909C12.8979 37.0909 13.7812 36.2076 13.7812 35.1222C13.7812 34.0368 12.8979 33.1534 11.8125 33.1534ZM11.8125 35.7784C11.4503 35.7784 11.1562 35.4844 11.1562 35.1222C11.1562 34.7599 11.4503 34.4659 11.8125 34.4659C12.1748 34.4659 12.4688 34.7599 12.4688 35.1222C12.4688 35.4844 12.1748 35.7784 11.8125 35.7784Z" fill="#535353"/>
</svg>
